<svg xmlns="http://www.w3.org/2000/svg" viewBox="0 0 172.2696 177.26085"><defs><style>.cls-1,.cls-2{fill:none;stroke-miterlimit:10;stroke-width:8px;}.cls-1{stroke:#e71f19;}.cls-2{stroke:#3697d4;}.cls-3{fill:#3697d4;}</style></defs><g id="图层_2" data-name="图层 2"><g id="图层_1-2" data-name="图层 1"><path class="cls-1" d="M34.89076,88.48407h99.62416l-4.92068-49.01852c-.26849-2.67473-3.55342-4.75152-7.51561-4.75152H90.92935v111.5h43.35541c4.52332,0,8.063-2.63646,7.62987-5.683l-7.39971-52.047"/><path class="cls-2" d="M73.07868,34.714H45.80737c-6.02907,0-10.91661,4.57789-10.91661,10.225v90.74228c0,5.817,5.03461,10.53271,11.24512,10.53271H83.409"/><path class="cls-1" d="M34.89076,88.48407h99.62416l-4.92068-49.01852c-.26849-2.67473-3.55342-4.75152-7.51561-4.75152H90.92935v111.5h43.35541c4.52332,0,8.063-2.63646,7.62987-5.683l-7.39971-52.047"/><path class="cls-2" d="M73.07868,34.714H45.80737c-6.02907,0-10.91661,4.57789-10.91661,10.225v90.74228c0,5.817,5.03461,10.53271,11.24512,10.53271H83.409"/><path class="cls-3" d="M172.26948,89.09271a95.48088,95.48088,0,0,1-5.89962,32.85541,88.84391,88.84391,0,0,1-17.54172,28.92337,80.93047,80.93047,0,0,1-61.77881,26.37072,84.32021,84.32021,0,0,1-17.09943-2.176,86.43134,86.43134,0,0,1-16.2084-5.56195,89.99974,89.99974,0,0,1-14.72757-8.52136A90.86269,90.86269,0,0,1,26.16,149.982,92.36976,92.36976,0,0,1,7.4218,122.07544c-.52533-1.30808-1.10465-2.59754-1.58527-3.92432-.46045-1.33347-.97635-2.65088-1.39066-4.001-.40078-1.3536-.86642-2.69192-1.22641-4.05938-.34014-1.37183-.73144-2.73508-1.02887-4.11914A91.097,91.097,0,0,1,.03917,89.09271,85.03958,85.03958,0,0,1,24.399,26.44235,88.02644,88.02644,0,0,1,52.986,6.85928a86.1053,86.1053,0,0,1,68.01016.28079c1.33838.562,2.62573,1.24045,3.93735,1.8566,1.2994.64319,2.55606,1.37079,3.83267,2.05286,1.25665.72006,2.46924,1.516,3.7016,2.27029,1.21389.78561,2.38754,1.63266,3.579,2.44571a82.85578,82.85578,0,0,1,12.8591,11.47064,89.46294,89.46294,0,0,1,17.52438,28.97605A94.661,94.661,0,0,1,172.26948,89.09271Zm-.8,0a76.75606,76.75606,0,0,0-7.05555-32.0444,80.61548,80.61548,0,0,0-19.26733-26.05289,88.38234,88.38234,0,0,0-12.849-9.62979c-1.15512-.66913-2.287-1.37183-3.45334-2.01294-1.18436-.61035-2.34479-1.25958-3.54077-1.83808-1.2045-.56161-2.38458-1.16973-3.60272-1.69461-1.22788-.50341-2.43711-1.046-3.67346-1.52023a84.02672,84.02672,0,0,0-61.83957.28079,82.07881,82.07881,0,0,0-26.4419,17.20868A84.49715,84.49715,0,0,0,4.41917,89.09271a78.61123,78.61123,0,0,0,23.56564,59.06448,78.0441,78.0441,0,0,0,27.44748,17.26953,85.35356,85.35356,0,0,0,31.617,5.1568,89.97227,89.97227,0,0,0,58.175-23.31579,81.18919,81.18919,0,0,0,19.25-26.10559A76.23008,76.23008,0,0,0,171.4695,89.09271Z"/></g></g></svg>