<svg xmlns="http://www.w3.org/2000/svg" viewBox="0 0 172.27 177.261"><defs><style>.cls-1,.cls-2{fill:none;stroke-miterlimit:10;stroke-width:8px}.cls-1{stroke:#e71f19}.cls-2{stroke:#3697d4}</style></defs><g id="图层_2" data-name="图层 2"><g id="图层_1-2" data-name="图层 1"><path class="cls-1" d="M34.89 88.484h99.625l-4.92-49.018c-.27-2.675-3.554-4.752-7.516-4.752h-31.15v111.5h43.356c4.523 0 8.063-2.636 7.63-5.683l-7.4-52.047"/><path class="cls-2" d="M73.079 34.714H45.807c-6.029 0-10.916 4.578-10.916 10.225v90.742c0 5.817 5.034 10.533 11.245 10.533h37.273"/><path class="cls-1" d="M34.89 88.484h99.625l-4.92-49.018c-.27-2.675-3.554-4.752-7.516-4.752h-31.15v111.5h43.356c4.523 0 8.063-2.636 7.63-5.683l-7.4-52.047"/><path class="cls-2" d="M73.079 34.714H45.807c-6.029 0-10.916 4.578-10.916 10.225v90.742c0 5.817 5.034 10.533 11.245 10.533h37.273"/><path d="M172.27 89.093a95.48 95.48 0 0 1-5.9 32.855 88.844 88.844 0 0 1-17.542 28.923 80.93 80.93 0 0 1-61.779 26.371 84.32 84.32 0 0 1-17.1-2.176 86.431 86.431 0 0 1-16.207-5.562 90 90 0 0 1-14.728-8.521 90.863 90.863 0 0 1-12.854-11.001 92.37 92.37 0 0 1-18.738-27.907c-.526-1.308-1.105-2.597-1.585-3.924-.46-1.333-.977-2.65-1.391-4-.4-1.354-.867-2.693-1.227-4.06-.34-1.372-.731-2.735-1.028-4.12A91.097 91.097 0 0 1 .039 89.094a85.04 85.04 0 0 1 24.36-62.65A88.026 88.026 0 0 1 52.986 6.858a86.105 86.105 0 0 1 68.01.281c1.339.562 2.626 1.24 3.938 1.857 1.299.643 2.556 1.37 3.832 2.053 1.257.72 2.47 1.516 3.702 2.27 1.214.785 2.387 1.632 3.579 2.446a82.856 82.856 0 0 1 12.859 11.47 89.463 89.463 0 0 1 17.524 28.976 94.661 94.661 0 0 1 5.84 32.88Zm-.8 0a76.756 76.756 0 0 0-7.056-32.045 80.615 80.615 0 0 0-19.267-26.053 88.382 88.382 0 0 0-12.85-9.63c-1.155-.669-2.286-1.371-3.453-2.012-1.184-.61-2.345-1.26-3.54-1.838-1.205-.562-2.385-1.17-3.603-1.695-1.228-.503-2.437-1.046-3.674-1.52a84.027 84.027 0 0 0-61.84.28 82.079 82.079 0 0 0-26.441 17.21A84.497 84.497 0 0 0 4.419 89.092a78.611 78.611 0 0 0 23.566 59.064 78.044 78.044 0 0 0 27.447 17.27 85.354 85.354 0 0 0 31.617 5.157 89.972 89.972 0 0 0 58.175-23.316 81.19 81.19 0 0 0 19.25-26.106 76.23 76.23 0 0 0 6.996-32.07Z" style="fill:#3697d4"/></g></g></svg>