<svg class="icon" viewBox="0 0 1024 1024" xmlns="http://www.w3.org/2000/svg" width="200" height="200"><path d="M448 428V288H320v140L192 736h384z" fill="#1296db"/><path d="M672 608c12.288 0 24.128-1.696 35.616-4.32l51.136 112.512a32.096 32.096 0 0 0 42.368 15.872 32 32 0 0 0 15.872-42.368l-51.2-112.64A159.264 159.264 0 0 0 832 448a160 160 0 1 0-160 160zm0-256c52.928 0 96 43.072 96 96s-43.072 96-96 96-96-43.072-96-96 43.072-96 96-96z" fill="#1296db"/><path d="M64 128v768h896V128H64zm832 704H128V192h768v640z" fill="#1296db"/></svg>