<?xml version="1.0" standalone="no"?><!DOCTYPE svg PUBLIC "-//W3C//DTD SVG 1.1//EN" "http://www.w3.org/Graphics/SVG/1.1/DTD/svg11.dtd"><svg t="1726748311284" class="icon" viewBox="0 0 1024 1024" version="1.1" xmlns="http://www.w3.org/2000/svg" p-id="5434" xmlns:xlink="http://www.w3.org/1999/xlink" width="200" height="200"><path d="M448 428V288h-128v140L192 736h384z" fill="#1296db" p-id="5435"></path><path d="M672 608c12.288 0 24.128-1.696 35.616-4.32l51.136 112.512a32.096 32.096 0 0 0 42.368 15.872 32 32 0 0 0 15.872-42.368l-51.2-112.64A159.264 159.264 0 0 0 832 448a160 160 0 1 0-160 160z m0-256c52.928 0 96 43.072 96 96s-43.072 96-96 96-96-43.072-96-96 43.072-96 96-96z" fill="#1296db" p-id="5436"></path><path d="M64 128v768h896V128H64z m832 704H128V192h768v640z" fill="#1296db" p-id="5437"></path></svg>